<svg width="690" height="630" viewBox="0 0 690 630" fill="none" xmlns="http://www.w3.org/2000/svg">
<path d="M669.391 630C680.574 630 689.521 621.037 689.681 609.992C690.48 554.611 694.953 472.82 590.79 450.092C506.437 431.845 556.442 281.547 329.264 291.311C166.15 298.354 209.445 436.006 82.7555 447.531C-1.59733 455.053 -2.39612 561.974 0.95882 610.953C1.59786 621.677 10.5444 630 21.2482 630H669.391V630Z" fill="#F5F4F5"/>
<path opacity="0.55" d="M590.79 450.092C506.438 431.845 556.442 281.547 329.265 291.311C290.443 292.912 263.444 302.035 242.835 315C249.705 314.04 257.054 313.399 264.882 313.079C492.059 303.316 442.055 453.613 526.408 471.86C629.452 494.268 626.257 574.459 625.298 630H669.392C680.575 630 689.522 621.037 689.681 609.992C690.64 554.451 695.113 472.66 590.79 450.092Z" fill="#28553F"/>
<path d="M233.089 0H229.575V262.18H233.089V0Z" fill="#FFEDEF"/>
<path d="M490.302 0H486.787V302.515H490.302V0Z" fill="#FFEDEF"/>
<path d="M489.982 284.748L223.344 253.537C212.001 252.256 201.617 260.419 200.339 271.783L180.369 442.729C179.091 454.093 187.238 464.497 198.581 465.777L465.219 496.989C476.562 498.27 486.947 490.107 488.225 478.742L508.195 307.797C509.633 296.433 501.485 286.189 489.982 284.748Z" fill="#DFDFDF"/>
<path d="M506.278 324.764L508.195 307.797C509.473 296.433 501.325 286.029 489.982 284.748L223.344 253.537C212.001 252.256 201.617 260.419 200.339 271.784L198.422 288.75L506.278 324.764Z" fill="#363838"/>
<path d="M241.397 392.309L275.266 332.607C277.503 328.765 281.656 326.684 285.97 327.165C292.041 327.805 296.194 333.247 295.555 339.329L288.526 399.672H288.846C292.999 400.152 296.035 403.994 295.555 408.155C295.076 412.317 291.242 415.358 287.088 414.878H286.769L285.491 425.922C285.011 430.404 280.858 433.605 276.384 433.125C271.911 432.645 268.716 428.483 269.195 424.002L270.473 412.957L246.19 410.076C242.036 409.596 239.001 405.755 239.48 401.593L240.119 395.991C240.439 394.71 240.758 393.43 241.397 392.309ZM272.39 396.791L276.704 359.337C276.704 359.017 276.384 359.017 276.225 359.177L256.255 394.55C255.935 395.191 256.255 395.991 257.053 395.991L271.272 397.591C271.911 397.752 272.39 397.271 272.39 396.791Z" fill="#28553F"/>
<path d="M390.612 409.756L424.481 350.053C426.718 346.212 430.872 344.131 435.185 344.611C441.256 345.251 445.41 350.693 444.771 356.776L437.741 417.119H438.061C442.215 417.599 445.25 421.44 444.771 425.602C444.292 429.764 440.457 432.805 436.304 432.325H435.984L434.706 443.369C434.227 447.851 430.073 451.052 425.6 450.572C421.126 450.091 417.931 445.93 418.411 441.448L419.689 430.404L395.405 427.523C391.251 427.043 388.216 423.201 388.695 419.04L389.334 413.437C389.654 412.157 389.973 410.876 390.612 409.756ZM421.606 414.238L425.919 376.783C425.919 376.463 425.6 376.463 425.44 376.623L405.47 411.997C405.151 412.637 405.47 413.437 406.269 413.437L420.487 415.038C421.126 415.198 421.606 414.718 421.606 414.238Z" fill="#28553F"/>
<path d="M323.513 357.096C325.43 340.29 335.495 331.646 351.631 333.567C367.926 335.488 375.594 346.212 373.677 363.018L367.287 417.759C365.37 434.566 355.305 443.209 339.169 441.288C322.874 439.368 315.205 428.643 317.123 411.837L323.513 357.096ZM333.578 415.038C332.779 422.561 335.655 425.762 340.927 426.403C346.199 427.043 349.873 424.482 350.672 416.959L357.382 359.977C358.181 352.454 355.305 349.253 350.033 348.613C344.761 347.973 341.086 350.534 340.288 358.057L333.578 415.038Z" fill="#28553F"/>
<path d="M224.143 282.187C227.231 282.187 229.734 279.679 229.734 276.585C229.734 273.491 227.231 270.983 224.143 270.983C221.055 270.983 218.551 273.491 218.551 276.585C218.551 279.679 221.055 282.187 224.143 282.187Z" fill="white"/>
<path d="M250.982 285.389C254.07 285.389 256.574 282.88 256.574 279.786C256.574 276.692 254.07 274.184 250.982 274.184C247.894 274.184 245.391 276.692 245.391 279.786C245.391 282.88 247.894 285.389 250.982 285.389Z" fill="#28553F"/>
<path d="M278.62 288.59C281.709 288.59 284.212 286.082 284.212 282.988C284.212 279.894 281.709 277.385 278.62 277.385C275.532 277.385 273.029 279.894 273.029 282.988C273.029 286.082 275.532 288.59 278.62 288.59Z" fill="#AA7E55"/>
<path d="M177.014 478.262C177.014 478.262 173.339 494.268 173.978 510.594C174.458 525.32 172.7 621.517 172.7 621.517H184.363C184.363 621.517 201.137 546.128 201.776 540.206C202.415 534.284 210.883 474.741 210.883 474.741L177.014 478.262Z" fill="#28553F"/>
<path d="M184.682 473.781C184.682 473.781 187.398 494.428 192.031 508.994C196.664 523.559 219.19 621.517 219.19 621.517H230.853C230.853 621.517 228.616 546.128 227.817 540.206C227.018 534.284 221.107 474.741 221.107 474.741L184.682 473.781Z" fill="#9C9C9C"/>
<path d="M220.149 621.517V629.68H242.515C243.793 629.68 244.273 628.079 243.154 627.279C239.959 625.038 234.687 622.157 229.734 621.357H220.149V621.517Z" fill="#28553F"/>
<path d="M173.339 621.517V629.68H195.705C196.983 629.68 197.463 628.079 196.344 627.279C193.149 625.038 187.877 622.157 182.924 621.357H173.339V621.517Z" fill="#28553F"/>
<path d="M213.598 378.225C213.598 378.225 221.267 366.54 212.48 365.42C205.77 364.62 202.894 366.54 202.894 366.54C202.894 366.54 195.066 365.74 190.753 369.421C187.877 371.982 177.013 391.67 194.427 398.873C211.841 406.075 208.166 387.828 208.166 387.828L213.598 378.225Z" fill="#28553F"/>
<path d="M212.48 365.259C205.77 364.459 202.894 366.38 202.894 366.38C202.894 366.38 195.066 365.579 190.753 369.261C187.877 371.822 177.013 391.509 194.427 398.712C202.575 402.073 206.09 399.832 207.527 396.471C191.072 401.113 189.315 381.265 192.031 375.503C194.747 369.741 201.457 372.462 201.457 372.462C204.013 365.899 212.48 366.7 215.995 367.18C215.356 366.22 214.237 365.579 212.48 365.259Z" fill="#9C9C9C"/>
<path d="M202.894 383.826C202.894 383.826 200.658 381.585 198.9 383.826C197.143 386.067 198.261 391.189 201.137 391.509C201.137 391.509 200.338 398.872 194.587 398.712V404.634H208.007V400.152C208.007 400.152 216.314 396.791 215.995 389.909C215.675 383.026 213.758 378.224 213.758 378.224C213.758 378.224 209.125 383.346 202.894 383.826Z" fill="#F98D3D"/>
<path d="M204.811 402.073C206.089 402.553 205.93 403.514 205.93 404.794H207.847V400.153C207.847 400.153 204.652 401.113 199.859 398.552C200.019 398.392 202.735 401.113 204.811 402.073Z" fill="#ED701B"/>
<path d="M207.687 372.942C207.687 372.942 200.817 370.221 200.019 372.302C199.539 373.582 200.817 374.863 202.734 375.983L201.137 376.303C200.817 376.303 200.658 376.784 200.977 377.104C201.456 377.424 202.734 377.744 205.291 377.744L207.687 372.942Z" fill="#F98D3D"/>
<path d="M257.213 390.389C243.953 380.625 207.847 372.782 207.847 372.782L204.812 378.224C204.812 378.224 237.562 391.029 235.485 392.79C234.207 393.91 218.231 401.273 212.799 403.674C211.681 404.154 210.403 404.474 209.125 404.474L192.51 404.314C192.51 404.314 180.528 402.873 171.102 413.758C162.635 423.521 148.417 445.93 148.417 445.93L172.54 481.463L175.256 485.465V485.785C175.256 485.785 176.055 485.945 177.652 485.945C185.481 486.585 210.243 488.666 223.344 485.785L223.663 485.625L223.024 427.363C243.953 410.716 254.017 397.912 257.692 393.75C258.491 392.79 258.331 391.189 257.213 390.389ZM176.215 469.779L173.818 464.657L166.31 448.171L178.771 434.245L176.534 464.817L176.215 469.779Z" fill="#28553F"/>
<path d="M173.818 464.657L176.215 469.779L175.096 485.465L172.38 481.464L173.818 464.657Z" fill="#EFAA3A"/>
<path opacity="0.29" d="M217.273 425.442C215.036 427.043 215.675 441.448 215.036 450.572C214.078 465.617 213.279 478.742 213.918 487.226C217.273 487.066 220.468 486.585 223.184 486.105L223.504 485.945L222.865 427.683C243.793 411.037 253.858 398.232 257.532 394.07C258.491 392.95 258.331 391.349 257.213 390.549C257.213 390.389 240.598 408.476 217.273 425.442Z" fill="#28553F"/>
<path d="M227.977 540.206C227.338 535.884 224.143 503.712 222.385 486.105L213.918 487.066C213.918 487.066 226.219 588.384 227.018 621.677H230.852C231.012 621.517 228.776 546.128 227.977 540.206Z" fill="#28553F"/>
<path d="M173.818 385.587L171.262 380.945C172.54 378.544 173.339 375.823 173.339 372.942C173.339 363.338 165.671 355.656 156.085 355.656C146.499 355.656 138.831 363.338 138.831 372.942C138.831 382.546 146.499 390.229 156.085 390.229C160.878 390.229 165.191 388.308 168.387 385.107L173.818 385.587Z" fill="#28553F"/>
<path d="M147.139 371.342H147.778V373.743C147.778 374.543 147.937 374.863 148.577 374.863C149.056 374.863 149.216 374.703 149.695 374.223V371.342H150.334V375.344H149.855V374.703C149.535 375.184 149.056 375.344 148.577 375.344C147.778 375.344 147.298 374.863 147.298 373.743V371.342H147.139Z" fill="white"/>
<path d="M153.05 375.663V376.944H152.411V371.341H152.89V371.822C153.209 371.501 153.689 371.341 154.168 371.341C155.127 371.341 155.766 372.142 155.766 373.422C155.766 374.703 154.967 375.503 154.008 375.503C153.689 375.503 153.209 375.343 152.89 375.023L153.05 375.663ZM154.008 374.863C154.647 374.863 155.127 374.223 155.127 373.262C155.127 372.462 154.807 371.822 154.168 371.822C153.848 371.822 153.529 371.982 153.05 372.302V374.383C153.369 374.703 153.848 374.863 154.008 374.863Z" fill="white"/>
<path d="M157.683 374.383C158.002 374.703 158.322 374.863 158.801 374.863C159.281 374.863 159.6 374.543 159.6 374.223C159.6 373.742 159.121 373.582 158.642 373.422C158.162 373.262 157.523 372.942 157.523 372.302C157.523 371.662 158.002 371.181 158.801 371.181C159.281 371.181 159.76 371.341 160.079 371.662L159.76 372.142C159.44 371.982 159.281 371.822 158.801 371.822C158.322 371.822 158.002 372.142 158.002 372.462C158.002 372.782 158.482 372.942 158.801 373.102C159.44 373.262 159.92 373.582 159.92 374.223C159.92 374.863 159.44 375.343 158.482 375.343C158.002 375.343 157.363 375.183 157.044 374.863L157.683 374.383Z" fill="white"/>
<path d="M162.316 374.383C162.636 374.383 162.795 374.543 162.795 374.863C162.795 375.183 162.636 375.343 162.316 375.343C161.997 375.343 161.837 375.183 161.837 374.863C161.837 374.543 161.997 374.383 162.316 374.383Z" fill="white"/>
<path d="M165.032 374.383C165.352 374.383 165.511 374.543 165.511 374.863C165.511 375.183 165.352 375.343 165.032 375.343C164.712 375.343 164.553 375.183 164.553 374.863C164.553 374.543 164.872 374.383 165.032 374.383Z" fill="white"/>
<path d="M107.838 593.026C107.838 593.026 104.164 589.665 106.72 576.86C109.116 564.055 115.347 551.73 112.311 537.805C109.276 523.88 85.6315 488.666 85.4718 486.425C85.4718 484.024 78.1229 527.241 90.4243 544.367C102.726 561.334 104.164 567.256 103.684 576.219C103.205 585.183 103.844 592.386 105.122 594.466L107.838 593.026Z" fill="#28553F"/>
<path d="M105.601 567.256C104.163 573.018 103.365 587.424 105.601 590.785C105.761 591.105 106.081 590.945 106.56 590.305C105.921 587.904 105.442 583.742 106.72 576.86C109.116 564.055 115.347 551.73 112.311 537.805C109.276 523.88 85.6314 488.666 85.4717 486.425C85.4717 486.425 88.9864 515.716 101.128 535.884C109.595 550.13 107.039 561.494 105.601 567.256Z" fill="#28553F"/>
<path d="M112.151 592.065C112.151 592.065 105.122 574.619 116.944 559.573C128.766 544.527 147.618 525.16 147.937 517.477C147.937 517.477 152.73 553.971 137.393 564.215C122.056 574.459 111.193 576.219 113.909 592.065H112.151Z" fill="#28553F"/>
<path d="M128.766 556.852C111.672 569.337 110.234 583.742 112.95 590.465C113.11 590.945 113.589 591.265 114.068 591.425C111.832 576.059 122.376 574.299 137.553 564.215C152.89 553.971 148.097 517.477 148.097 517.477C148.097 517.477 145.861 544.367 128.766 556.852Z" fill="#28553F"/>
<path d="M100.649 592.546C100.649 592.546 102.886 583.262 101.767 573.338C100.649 563.415 90.2646 557.812 80.5193 547.248C75.5668 541.806 74.1289 513.155 77.1644 510.594C77.1644 510.594 60.0701 531.402 62.6263 546.608C65.3422 561.814 93.1403 571.738 95.8562 579.101C98.4123 586.463 98.2526 592.706 98.2526 592.706L100.649 592.546Z" fill="#28553F"/>
<path d="M71.2531 518.758C65.6616 534.123 71.4129 552.69 90.2645 564.215C104.164 572.698 99.6903 590.465 99.6903 590.465L101.927 583.422C102.087 580.381 102.087 576.86 101.767 573.338C100.649 563.415 90.2645 557.812 80.5192 547.248C75.7264 541.966 74.1288 515.236 76.8447 510.915C76.0459 512.035 73.8093 514.916 71.2531 518.758Z" fill="#28553F"/>
<path d="M76.8447 510.915C77.0045 510.595 77.1642 510.594 77.1642 510.594C77.0045 510.755 76.8447 510.755 76.8447 510.915Z" fill="#28553F"/>
<path d="M115.826 591.425C115.826 591.425 119.82 576.54 129.725 574.459C139.63 572.378 150.973 557.812 151.612 554.931C151.612 554.931 150.014 582.622 115.826 591.425Z" fill="#28553F"/>
<path d="M129.086 579.421C123.015 582.462 120.459 586.623 119.5 590.305C150.014 580.541 151.452 554.931 151.452 554.931C151.292 555.572 150.813 556.532 149.854 557.812C147.138 562.934 139.789 573.979 129.086 579.421Z" fill="#28553F"/>
<path d="M137.234 585.823H85.312L91.5426 624.718C92.0219 627.599 94.578 629.84 97.4537 629.84H125.092C128.127 629.84 130.684 627.599 131.003 624.718L137.234 585.823Z" fill="#28553F"/>
<path d="M136.275 592.226L137.234 585.823H85.312L86.2706 592.226H136.275Z" fill="#28553F"/>
<path d="M124.613 585.823L118.382 624.718C117.903 627.599 115.347 629.84 112.471 629.84H125.092C128.128 629.84 130.684 627.599 131.003 624.718L137.234 585.823H124.613Z" fill="#28553F"/>
<path d="M495.414 516.517H260.728V564.375H495.414V516.517Z" fill="#28553F"/>
<path opacity="0.29" d="M495.414 516.517H260.728V528.041H495.414V516.517Z" fill="#28553F"/>
<path d="M281.017 516.517H302.425L296.674 528.201H275.266L281.017 516.517Z" fill="#28553F"/>
<path d="M329.265 516.517H350.672L344.921 528.201H323.513L329.265 516.517Z" fill="#28553F"/>
<path d="M377.512 516.517H398.92L393.168 528.201H371.761L377.512 516.517Z" fill="#28553F"/>
<path d="M425.76 516.517H447.167L441.416 528.201H420.008L425.76 516.517Z" fill="#28553F"/>
<path d="M495.255 516.517V516.837L489.663 528.201H468.255L474.007 516.517H495.255Z" fill="#28553F"/>
<path d="M306.419 564.375H289.804V629.68H306.419V564.375Z" fill="#28553F"/>
<path d="M306.419 564.375H302.585V629.68H306.419V564.375Z" fill="#9C9C9C"/>
<path d="M467.456 564.375H450.841V629.68H467.456V564.375Z" fill="#28553F"/>
<path d="M467.456 564.375H462.504V629.68H467.456V564.375Z" fill="#9C9C9C"/>
<path d="M306.419 564.375H289.804V572.538H306.419V564.375Z" fill="#9C9C9C"/>
<path d="M467.456 564.375H450.841V572.538H467.456V564.375Z" fill="#9C9C9C"/>
<path d="M306.419 509.154H289.804V516.517H306.419V509.154Z" fill="#28553F"/>
<path d="M306.419 509.154H302.585V516.517H306.419V509.154Z" fill="#9C9C9C"/>
<path d="M467.456 509.154H450.841V516.517H467.456V509.154Z" fill="#28553F"/>
<path d="M467.456 509.154H462.504V516.517H467.456V509.154Z" fill="#9C9C9C"/>
<path d="M306.419 515.556H289.804V516.517H306.419V515.556Z" fill="#9C9C9C"/>
<path d="M467.456 515.556H450.841V516.517H467.456V515.556Z" fill="#9C9C9C"/>
<path d="M302.425 516.517L278.781 564.375H260.728V557.812L281.017 516.517H302.425Z" fill="#28553F"/>
<path d="M329.265 516.517L305.62 564.375H327.028L350.672 516.517H329.265Z" fill="#28553F"/>
<path d="M398.92 516.517L375.275 564.375H353.868L377.512 516.517H398.92Z" fill="#28553F"/>
<path d="M447.167 516.517L423.522 564.375H402.115L425.759 516.517H447.167Z" fill="#28553F"/>
<path d="M474.007 516.517L450.362 564.375H471.77L495.255 516.837L474.007 516.517Z" fill="#28553F"/>
<path d="M302.425 516.517L296.674 528.201H275.266L281.017 516.517H302.425Z" fill="#28553F"/>
<path d="M350.673 516.517L344.921 528.201H323.514L329.265 516.517H350.673Z" fill="#28553F"/>
<path d="M398.92 516.517L393.168 528.201H371.761L377.512 516.517H398.92Z" fill="#28553F"/>
<path d="M447.167 516.517L441.416 528.201H420.008L425.759 516.517H447.167Z" fill="#28553F"/>
<path d="M495.254 516.837L489.663 528.201H468.255L474.006 516.517L495.254 516.837Z" fill="#28553F"/>
<path opacity="0.55" d="M491.26 537.325H267.278V561.174H491.26V537.325Z" fill="url(#paint0_linear_4_42299)"/>
<path d="M297.632 513.475C305.75 513.475 312.33 506.883 312.33 498.75C312.33 490.617 305.75 484.024 297.632 484.024C289.515 484.024 282.935 490.617 282.935 498.75C282.935 506.883 289.515 513.475 297.632 513.475Z" fill="#28553F"/>
<path d="M297.633 505.472C301.339 505.472 304.343 502.463 304.343 498.75C304.343 495.037 301.339 492.027 297.633 492.027C293.927 492.027 290.923 495.037 290.923 498.75C290.923 502.463 293.927 505.472 297.633 505.472Z" fill="#EEEEEE"/>
<path d="M458.989 513.475C467.107 513.475 473.687 506.883 473.687 498.75C473.687 490.617 467.107 484.024 458.989 484.024C450.872 484.024 444.292 490.617 444.292 498.75C444.292 506.883 450.872 513.475 458.989 513.475Z" fill="#28553F"/>
<path d="M458.99 505.472C462.695 505.472 465.7 502.463 465.7 498.75C465.7 495.037 462.695 492.027 458.99 492.027C455.284 492.027 452.28 495.037 452.28 498.75C452.28 502.463 455.284 505.472 458.99 505.472Z" fill="#EEEEEE"/>
<path d="M584.241 624.718H509.473L520.976 597.027L525.609 585.823L526.887 582.782L528.964 577.82L529.443 576.86L534.076 565.656L534.875 563.575L543.023 543.727C544.46 540.206 549.573 540.206 551.011 543.727L559.158 563.575L559.957 565.656L564.59 576.86L565.069 577.82L567.146 582.782L568.424 585.823L573.057 597.027L584.241 624.718Z" fill="#28553F"/>
<path opacity="0.29" d="M514.426 612.713L509.473 624.718H584.241L579.288 612.713H514.426Z" fill="#28553F"/>
<path d="M589.193 617.515H503.562V629.68H589.193V617.515Z" fill="#979797"/>
<path d="M589.034 617.515H570.501V629.68H589.034V617.515Z" fill="#282A30"/>
<path d="M589.034 617.515H570.501V629.68H589.034V617.515Z" fill="black" fill-opacity="0.2"/>
<path d="M589.034 617.515H570.501V629.68H589.034V617.515Z" fill="black" fill-opacity="0.2"/>
<path d="M589.034 617.515H570.501V629.68H589.034V617.515Z" fill="black" fill-opacity="0.2"/>
<path d="M589.034 617.515H570.501V629.68H589.034V617.515Z" fill="black" fill-opacity="0.2"/>
<path d="M589.034 617.515H570.501V629.68H589.034V617.515Z" fill="black" fill-opacity="0.2"/>
<path d="M589.034 617.515H570.501V629.68H589.034V617.515Z" fill="black" fill-opacity="0.2"/>
<path d="M589.034 617.515H570.501V629.68H589.034V617.515Z" fill="black" fill-opacity="0.2"/>
<path opacity="0.29" d="M581.205 617.515H570.661L562.194 596.867L557.561 585.663L556.282 582.622L554.206 577.66L553.726 576.7L549.093 565.495L548.294 563.415L541.425 546.768L542.703 543.567C544.141 540.046 549.253 540.046 550.691 543.567L558.839 563.415L559.637 565.495L564.27 576.7L564.75 577.66L566.827 582.622L568.105 585.663L572.738 596.867L581.205 617.515Z" fill="#28553F"/>
<path d="M564.43 576.54H529.283L533.756 565.335H559.797L564.43 576.54Z" fill="#282A30"/>
<path d="M564.43 576.54H529.283L533.756 565.335H559.797L564.43 576.54Z" fill="black" fill-opacity="0.2"/>
<path d="M564.43 576.54H529.283L533.756 565.335H559.797L564.43 576.54Z" fill="black" fill-opacity="0.2"/>
<path d="M564.43 576.54H529.283L533.756 565.335H559.797L564.43 576.54Z" fill="black" fill-opacity="0.2"/>
<path d="M564.43 576.54H529.283L533.756 565.335H559.797L564.43 576.54Z" fill="black" fill-opacity="0.2"/>
<path d="M564.43 576.54H529.283L533.756 565.335H559.797L564.43 576.54Z" fill="black" fill-opacity="0.2"/>
<path d="M564.43 576.54H529.283L533.756 565.335H559.797L564.43 576.54Z" fill="black" fill-opacity="0.2"/>
<path d="M564.43 576.54H529.283L533.756 565.335H559.797L564.43 576.54Z" fill="black" fill-opacity="0.2"/>
<path d="M572.738 596.867H520.816L525.449 585.663H568.105L572.738 596.867Z" fill="#282A30"/>
<path d="M572.738 596.867H520.816L525.449 585.663H568.105L572.738 596.867Z" fill="black" fill-opacity="0.2"/>
<path d="M572.738 596.867H520.816L525.449 585.663H568.105L572.738 596.867Z" fill="black" fill-opacity="0.2"/>
<path d="M572.738 596.867H520.816L525.449 585.663H568.105L572.738 596.867Z" fill="black" fill-opacity="0.2"/>
<path d="M572.738 596.867H520.816L525.449 585.663H568.105L572.738 596.867Z" fill="black" fill-opacity="0.2"/>
<path d="M572.738 596.867H520.816L525.449 585.663H568.105L572.738 596.867Z" fill="black" fill-opacity="0.2"/>
<path d="M572.738 596.867H520.816L525.449 585.663H568.105L572.738 596.867Z" fill="black" fill-opacity="0.2"/>
<path d="M572.738 596.867H520.816L525.449 585.663H568.105L572.738 596.867Z" fill="black" fill-opacity="0.2"/>
<path d="M564.43 576.54H553.886L549.253 565.335H559.797L564.43 576.54Z" fill="#28553F"/>
<path d="M572.738 596.867H562.194L557.561 585.663H568.105L572.738 596.867Z" fill="#28553F"/>
<path d="M107.837 352.454C113.429 352.454 118.222 348.453 119.021 342.851C119.18 341.89 119.18 340.77 119.18 339.809C119.18 327.485 109.275 317.401 96.814 317.401C96.3348 317.401 95.8555 317.401 95.3762 317.401C94.4177 305.236 84.1931 295.633 71.7319 295.633C58.6316 295.633 48.0875 306.197 48.0875 319.322C48.0875 319.962 48.0875 320.442 48.0875 321.082C44.413 319.001 40.0995 317.881 35.4665 318.041C23.6443 318.521 13.7393 328.125 12.9405 339.969C12.9405 340.129 12.9405 340.129 12.9405 340.29C12.621 346.692 17.7332 352.134 24.2834 352.134H107.837V352.454Z" fill="#EEEEEE"/>
<path d="M639.995 370.061C657.569 370.061 658.528 343.491 640.954 342.691C640.475 342.691 639.995 342.691 639.516 342.691C636.321 342.691 633.286 343.171 630.57 344.131C628.173 329.726 615.712 318.681 600.695 318.681C585.358 318.681 572.577 330.206 570.66 345.091C566.985 343.331 562.992 342.37 558.678 342.37C556.282 342.37 553.885 342.691 551.649 343.331C536.152 347.332 539.507 370.221 555.323 370.221H639.995V370.061Z" fill="#EEEEEE"/>
<path d="M428.315 238.971C445.888 238.971 446.847 212.401 429.273 211.601C428.794 211.601 428.314 211.601 427.835 211.601C424.64 211.601 421.605 212.081 418.889 213.041C416.492 198.636 404.031 187.751 389.014 187.751C373.677 187.751 361.056 199.276 358.979 214.001C355.305 212.241 351.311 211.28 346.997 211.28C344.601 211.28 342.204 211.601 339.968 212.241C324.631 216.242 327.826 239.131 343.642 239.131H428.315V238.971Z" fill="#EEEEEE"/>
<path d="M147.617 288.27C170.999 288.27 189.954 269.279 189.954 245.854C189.954 222.428 170.999 203.438 147.617 203.438C124.236 203.438 105.281 222.428 105.281 245.854C105.281 269.279 124.236 288.27 147.617 288.27Z" fill="#9C9C9C"/>
<path d="M147.937 203.438C159.439 210.96 166.948 224.085 166.948 238.811C166.948 262.18 148.097 281.227 124.612 281.227C124.452 281.227 124.452 281.227 124.292 281.227C131.002 285.549 138.831 288.11 147.458 288.11C170.782 288.11 189.794 269.223 189.794 245.694C189.954 222.485 171.102 203.598 147.937 203.438Z" fill="#28553F"/>
<defs>
<linearGradient id="paint0_linear_4_42299" x1="379.224" y1="578.368" x2="379.224" y2="539.867" gradientUnits="userSpaceOnUse">
<stop stop-color="white"/>
<stop offset="1" stop-color="white" stop-opacity="0"/>
</linearGradient>
</defs>
</svg>
