<svg width="23" height="23" viewBox="0 0 23 23" fill="none" xmlns="http://www.w3.org/2000/svg">

    <path id="search" fill-rule="evenodd" clip-rule="evenodd" d="M5.55369 10.2906C5.55369 9.66856 5.67621 9.05259 5.91427 8.47788C6.15232 7.90317 6.50124 7.38097 6.9411 6.94111C7.38096 6.50125 7.90316 6.15233 8.47787 5.91428C9.05258 5.67622 9.66855 5.5537 10.2906 5.5537C10.9127 5.5537 11.5286 5.67622 12.1034 5.91428C12.6781 6.15233 13.2003 6.50125 13.6401 6.94111C14.08 7.38097 14.4289 7.90317 14.667 8.47788C14.905 9.05259 15.0275 9.66856 15.0275 10.2906C15.0275 11.5469 14.5285 12.7518 13.6401 13.6401C12.7518 14.5285 11.5469 15.0275 10.2906 15.0275C9.0343 15.0275 7.82945 14.5285 6.9411 13.6401C6.05276 12.7518 5.55369 11.5469 5.55369 10.2906ZM10.2906 2.39575C9.05953 2.39588 7.84555 2.68391 6.74563 3.23682C5.6457 3.78973 4.69032 4.59221 3.9558 5.58015C3.22128 6.56808 2.72797 7.71411 2.51529 8.92667C2.3026 10.1392 2.37643 11.3847 2.73088 12.5637C3.08533 13.7426 3.71057 14.8223 4.55666 15.7166C5.40275 16.6108 6.44624 17.2948 7.60378 17.7139C8.76132 18.133 10.0008 18.2756 11.2233 18.1303C12.4458 17.985 13.6173 17.5558 14.6444 16.877L19.7002 21.934C19.9964 22.2302 20.3982 22.3966 20.8171 22.3966C21.236 22.3966 21.6377 22.2302 21.934 21.934C22.2302 21.6378 22.3966 21.236 22.3966 20.8171C22.3966 20.3982 22.2302 19.9965 21.934 19.7002L16.877 14.6444C17.6637 13.4545 18.1132 12.0737 18.1779 10.6487C18.2426 9.22378 17.92 7.80792 17.2445 6.55162C16.5689 5.29532 15.5656 4.24551 14.3412 3.51376C13.1168 2.78201 11.717 2.39565 10.2906 2.39575Z" fill="white"/>


    <path id="whatsapp" d="M17.0854 2.92468C16.164 1.99396 15.0665 1.25601 13.8569 0.75388C12.6473 0.251753 11.3499 -0.00450263 10.0402 5.9869e-05C4.55276 5.9869e-05 0.0804022 4.47242 0.0804022 9.95986C0.0804022 11.7187 0.542714 13.4272 1.40704 14.9347L0 20.1006L5.27638 18.7136C6.73367 19.5076 8.37186 19.9297 10.0402 19.9297C15.5276 19.9297 20 15.4573 20 9.96991C20 7.30659 18.9648 4.80408 17.0854 2.92468ZM10.0402 18.2413C8.55276 18.2413 7.09548 17.8393 5.81909 17.0855L5.51759 16.9046L2.38191 17.7287L3.21608 14.6734L3.01508 14.3619C2.18869 13.0422 1.74989 11.5169 1.74874 9.95986C1.74874 5.39704 5.46734 1.67845 10.0301 1.67845C12.2412 1.67845 14.3216 2.54277 15.8794 4.11061C16.6507 4.87842 17.262 5.79168 17.6778 6.79747C18.0936 7.80326 18.3056 8.88158 18.3015 9.96991C18.3216 14.5327 14.603 18.2413 10.0402 18.2413ZM14.5829 12.0503C14.3317 11.9297 13.1055 11.3267 12.8844 11.2362C12.6533 11.1558 12.4925 11.1156 12.3216 11.3568C12.1508 11.6081 11.6784 12.1709 11.5377 12.3317C11.397 12.5026 11.2462 12.5227 10.995 12.392C10.7437 12.2714 9.9397 12.0001 8.99497 11.1558C8.25126 10.4925 7.75879 9.67845 7.60804 9.4272C7.46734 9.17594 7.58794 9.04529 7.71859 8.91463C7.82914 8.80408 7.96985 8.62318 8.09045 8.48247C8.21105 8.34177 8.26131 8.23121 8.34171 8.07041C8.42211 7.89956 8.38191 7.75885 8.32161 7.63825C8.26131 7.51765 7.75879 6.29152 7.55779 5.78901C7.35678 5.30659 7.14573 5.36689 6.99497 5.35684H6.51256C6.34171 5.35684 6.0804 5.41715 5.84925 5.6684C5.62814 5.91966 4.98492 6.52267 4.98492 7.7488C4.98492 8.97493 5.8794 10.1609 6 10.3217C6.1206 10.4925 7.75879 13.0051 10.2513 14.0805C10.8442 14.3418 11.3065 14.4925 11.6683 14.6031C12.2613 14.794 12.804 14.7639 13.2362 14.7036C13.7186 14.6332 14.7136 14.1006 14.9146 13.5176C15.1256 12.9347 15.1256 12.4423 15.0553 12.3317C14.9849 12.2212 14.8342 12.1709 14.5829 12.0503Z" fill="white"/>


    <path id="phone" d="M17.5826 13.1547C16.61 13.0347 15.6441 12.8645 14.689 12.6449C14.4559 12.567 14.2065 12.5505 13.9651 12.5972C13.7237 12.6439 13.4985 12.7521 13.3111 12.9113C13.0677 13.1593 12.365 13.8529 11.6347 14.5694C9.01816 13.2831 6.90208 11.1654 5.61784 8.54793C6.32976 7.81764 6.99575 7.11951 7.26673 6.87608C7.42597 6.68875 7.53415 6.46349 7.58082 6.2221C7.62749 5.98071 7.61106 5.73136 7.53313 5.49817C7.31322 4.54157 7.14305 3.57421 7.0233 2.59999C7.01047 2.47593 6.97252 2.35578 6.91174 2.24687C6.85097 2.13795 6.76865 2.04256 6.66981 1.96649C6.57097 1.89043 6.45767 1.83529 6.33683 1.80443C6.21598 1.77358 6.09012 1.76765 5.96691 1.78702H2.05367C1.89214 1.80161 1.74093 1.87271 1.62667 1.98781C1.51241 2.10291 1.44242 2.25464 1.42902 2.41627C1.1764 5.94829 3.1468 9.72833 3.5464 10.454V10.4816L3.60151 10.5872C5.03193 13.0681 7.09154 15.1277 9.57242 16.5581V16.5581L9.77452 16.673C10.6931 17.1598 14.3446 18.997 17.7572 18.7444C17.9204 18.7331 18.0743 18.664 18.1913 18.5496C18.3083 18.4351 18.3807 18.2827 18.3956 18.1198V14.2111C18.415 14.0879 18.409 13.962 18.3782 13.8412C18.3473 13.7204 18.2922 13.6071 18.2161 13.5082C18.1401 13.4094 18.0447 13.3271 17.9358 13.2663C17.8268 13.2055 17.7067 13.1675 17.5826 13.1547Z" fill="white"/>
</svg>