<svg xmlns="http://www.w3.org/2000/svg">
    <!-- header -->
    <path id="search" fill-rule="evenodd" clip-rule="evenodd" d="M5.55369 10.2906C5.55369 9.66856 5.67621 9.05259 5.91427 8.47788C6.15232 7.90317 6.50124 7.38097 6.9411 6.94111C7.38096 6.50125 7.90316 6.15233 8.47787 5.91428C9.05258 5.67622 9.66855 5.5537 10.2906 5.5537C10.9127 5.5537 11.5286 5.67622 12.1034 5.91428C12.6781 6.15233 13.2003 6.50125 13.6401 6.94111C14.08 7.38097 14.4289 7.90317 14.667 8.47788C14.905 9.05259 15.0275 9.66856 15.0275 10.2906C15.0275 11.5469 14.5285 12.7518 13.6401 13.6401C12.7518 14.5285 11.5469 15.0275 10.2906 15.0275C9.0343 15.0275 7.82945 14.5285 6.9411 13.6401C6.05276 12.7518 5.55369 11.5469 5.55369 10.2906ZM10.2906 2.39575C9.05953 2.39588 7.84555 2.68391 6.74563 3.23682C5.6457 3.78973 4.69032 4.59221 3.9558 5.58015C3.22128 6.56808 2.72797 7.71411 2.51529 8.92667C2.3026 10.1392 2.37643 11.3847 2.73088 12.5637C3.08533 13.7426 3.71057 14.8223 4.55666 15.7166C5.40275 16.6108 6.44624 17.2948 7.60378 17.7139C8.76132 18.133 10.0008 18.2756 11.2233 18.1303C12.4458 17.985 13.6173 17.5558 14.6444 16.877L19.7002 21.934C19.9964 22.2302 20.3982 22.3966 20.8171 22.3966C21.236 22.3966 21.6377 22.2302 21.934 21.934C22.2302 21.6378 22.3966 21.236 22.3966 20.8171C22.3966 20.3982 22.2302 19.9965 21.934 19.7002L16.877 14.6444C17.6637 13.4545 18.1132 12.0737 18.1779 10.6487C18.2426 9.22378 17.92 7.80792 17.2445 6.55162C16.5689 5.29532 15.5656 4.24551 14.3412 3.51376C13.1168 2.78201 11.717 2.39565 10.2906 2.39575Z"/>

    <path id="whatsapp" d="M17.0854 2.92468C16.164 1.99396 15.0665 1.25601 13.8569 0.75388C12.6473 0.251753 11.3499 -0.00450263 10.0402 5.9869e-05C4.55276 5.9869e-05 0.0804022 4.47242 0.0804022 9.95986C0.0804022 11.7187 0.542714 13.4272 1.40704 14.9347L0 20.1006L5.27638 18.7136C6.73367 19.5076 8.37186 19.9297 10.0402 19.9297C15.5276 19.9297 20 15.4573 20 9.96991C20 7.30659 18.9648 4.80408 17.0854 2.92468ZM10.0402 18.2413C8.55276 18.2413 7.09548 17.8393 5.81909 17.0855L5.51759 16.9046L2.38191 17.7287L3.21608 14.6734L3.01508 14.3619C2.18869 13.0422 1.74989 11.5169 1.74874 9.95986C1.74874 5.39704 5.46734 1.67845 10.0301 1.67845C12.2412 1.67845 14.3216 2.54277 15.8794 4.11061C16.6507 4.87842 17.262 5.79168 17.6778 6.79747C18.0936 7.80326 18.3056 8.88158 18.3015 9.96991C18.3216 14.5327 14.603 18.2413 10.0402 18.2413ZM14.5829 12.0503C14.3317 11.9297 13.1055 11.3267 12.8844 11.2362C12.6533 11.1558 12.4925 11.1156 12.3216 11.3568C12.1508 11.6081 11.6784 12.1709 11.5377 12.3317C11.397 12.5026 11.2462 12.5227 10.995 12.392C10.7437 12.2714 9.9397 12.0001 8.99497 11.1558C8.25126 10.4925 7.75879 9.67845 7.60804 9.4272C7.46734 9.17594 7.58794 9.04529 7.71859 8.91463C7.82914 8.80408 7.96985 8.62318 8.09045 8.48247C8.21105 8.34177 8.26131 8.23121 8.34171 8.07041C8.42211 7.89956 8.38191 7.75885 8.32161 7.63825C8.26131 7.51765 7.75879 6.29152 7.55779 5.78901C7.35678 5.30659 7.14573 5.36689 6.99497 5.35684H6.51256C6.34171 5.35684 6.0804 5.41715 5.84925 5.6684C5.62814 5.91966 4.98492 6.52267 4.98492 7.7488C4.98492 8.97493 5.8794 10.1609 6 10.3217C6.1206 10.4925 7.75879 13.0051 10.2513 14.0805C10.8442 14.3418 11.3065 14.4925 11.6683 14.6031C12.2613 14.794 12.804 14.7639 13.2362 14.7036C13.7186 14.6332 14.7136 14.1006 14.9146 13.5176C15.1256 12.9347 15.1256 12.4423 15.0553 12.3317C14.9849 12.2212 14.8342 12.1709 14.5829 12.0503Z"/>


    <path id="phone" d="M17.5826 13.1547C16.61 13.0347 15.6441 12.8645 14.689 12.6449C14.4559 12.567 14.2065 12.5505 13.9651 12.5972C13.7237 12.6439 13.4985 12.7521 13.3111 12.9113C13.0677 13.1593 12.365 13.8529 11.6347 14.5694C9.01816 13.2831 6.90208 11.1654 5.61784 8.54793C6.32976 7.81764 6.99575 7.11951 7.26673 6.87608C7.42597 6.68875 7.53415 6.46349 7.58082 6.2221C7.62749 5.98071 7.61106 5.73136 7.53313 5.49817C7.31322 4.54157 7.14305 3.57421 7.0233 2.59999C7.01047 2.47593 6.97252 2.35578 6.91174 2.24687C6.85097 2.13795 6.76865 2.04256 6.66981 1.96649C6.57097 1.89043 6.45767 1.83529 6.33683 1.80443C6.21598 1.77358 6.09012 1.76765 5.96691 1.78702H2.05367C1.89214 1.80161 1.74093 1.87271 1.62667 1.98781C1.51241 2.10291 1.44242 2.25464 1.42902 2.41627C1.1764 5.94829 3.1468 9.72833 3.5464 10.454V10.4816L3.60151 10.5872C5.03193 13.0681 7.09154 15.1277 9.57242 16.5581V16.5581L9.77452 16.673C10.6931 17.1598 14.3446 18.997 17.7572 18.7444C17.9204 18.7331 18.0743 18.664 18.1913 18.5496C18.3083 18.4351 18.3807 18.2827 18.3956 18.1198V14.2111C18.415 14.0879 18.409 13.962 18.3782 13.8412C18.3473 13.7204 18.2922 13.6071 18.2161 13.5082C18.1401 13.4094 18.0447 13.3271 17.9358 13.2663C17.8268 13.2055 17.7067 13.1675 17.5826 13.1547Z" />
    <!-- end header -->

    <!-- arrow navigation -->
    <path id="right-arrow" d="M13.1302 7.8495L5.71334 0.432762C5.5418 0.261083 5.3128 0.166504 5.06863 0.166504C4.82446 0.166504 4.59547 0.261083 4.42392 0.432762L3.87772 0.978828C3.5223 1.33465 3.5223 1.91297 3.87772 2.26825L10.1059 8.49638L3.87081 14.7314C3.69927 14.9031 3.60455 15.132 3.60455 15.376C3.60455 15.6203 3.69927 15.8492 3.87081 16.021L4.41701 16.5669C4.58869 16.7386 4.81755 16.8332 5.06172 16.8332C5.30589 16.8332 5.53489 16.7386 5.70643 16.5669L13.1302 9.1434C13.3022 8.97117 13.3966 8.74123 13.3961 8.49679C13.3966 8.2514 13.3022 8.02159 13.1302 7.8495Z"/>

    <path id="left-arrow" d="M4.03695 7.84975L11.4538 0.433006C11.6254 0.261327 11.8544 0.166748 12.0985 0.166748C12.3427 0.166748 12.5717 0.261327 12.7433 0.433006L13.2895 0.979072C13.6449 1.3349 13.6449 1.91321 13.2895 2.26849L7.06132 8.49663L13.2964 14.7317C13.4679 14.9033 13.5626 15.1322 13.5626 15.3762C13.5626 15.6206 13.4679 15.8494 13.2964 16.0212L12.7502 16.5672C12.5785 16.7388 12.3496 16.8334 12.1055 16.8334C11.8613 16.8334 11.6323 16.7388 11.4607 16.5672L4.03695 9.14364C3.86501 8.97142 3.77056 8.74148 3.7711 8.49703C3.77056 8.25164 3.86501 8.02183 4.03695 7.84975Z"/>

    <path id="btn-arrow" d="M35.3536 4.35355C35.5488 4.15829 35.5488 3.84171 35.3536 3.64645L32.1716 0.464466C31.9763 0.269204 31.6597 0.269204 31.4645 0.464466C31.2692 0.659728 31.2692 0.976311 31.4645 1.17157L34.2929 4L31.4645 6.82843C31.2692 7.02369 31.2692 7.34027 31.4645 7.53553C31.6597 7.7308 31.9763 7.7308 32.1716 7.53553L35.3536 4.35355ZM0 4.5L35 4.5V3.5L0 3.5L0 4.5Z"/>

    <path id="arrow-to-the-top" fill-rule="evenodd" clip-rule="evenodd" d="M8.8108 11.7112C8.33741 11.2307 8.32935 10.4425 8.79279 9.9508L14.133 4.28493C14.5964 3.79323 15.3559 3.7842 15.8293 4.26477L21.2841 9.80233C21.7575 10.2829 21.7655 11.0711 21.3021 11.5628C20.8387 12.0545 20.0792 12.0635 19.6058 11.5829L16.2203 8.14609L16.3933 25.058C16.4004 25.7455 15.869 26.3092 15.2066 26.3171C14.5442 26.325 14.0015 25.774 13.9944 25.0865L13.8214 8.1746L10.5071 11.6911C10.0436 12.1828 9.28418 12.1918 8.8108 11.7112Z"/>
    <!-- end arrow navigation -->

    <!-- social -->
    <path id="Youtube" fill-rule="evenodd" clip-rule="evenodd" d="M14.3618 2.74255C15.0471 2.92712 15.5875 3.4674 15.7719 4.15282C16.1147 5.40477 16.1015 8.01438 16.1015 8.01438C16.1015 8.01438 16.1015 10.6107 15.772 11.8627C15.5875 12.548 15.0472 13.0884 14.3618 13.2729C13.1097 13.6025 8.10153 13.6025 8.10153 13.6025C8.10153 13.6025 3.10643 13.6025 1.8413 13.2598C1.15588 13.0753 0.615598 12.5349 0.431029 11.8496C0.101562 10.6107 0.101562 8.00119 0.101562 8.00119C0.101562 8.00119 0.101562 5.40477 0.431029 4.15282C0.615476 3.46752 1.16906 2.91394 1.84118 2.72949C3.09325 2.3999 8.10141 2.3999 8.10141 2.3999C8.10141 2.3999 13.1097 2.3999 14.3618 2.74255ZM10.6715 8.00121L6.50681 10.3999V5.60253L10.6715 8.00121Z"/>

    <path id="Twitter" d="M15.1016 3.84839C14.5863 4.06701 14.0334 4.21528 13.4525 4.28147C14.0456 3.94137 14.4997 3.40192 14.7149 2.76109C14.1585 3.07605 13.5443 3.30475 12.8899 3.42873C12.3659 2.89346 11.6206 2.56006 10.7938 2.56006C9.20776 2.56006 7.92175 3.79143 7.92175 5.30929C7.92175 5.52457 7.94712 5.73482 7.99612 5.93588C5.60957 5.8211 3.49335 4.72627 2.07699 3.06265C1.8294 3.46809 1.68856 3.94051 1.68856 4.44481C1.68856 5.39892 2.19597 6.24078 2.96583 6.73332C2.49516 6.71825 2.05249 6.59427 1.66495 6.3882V6.42254C1.66495 7.75444 2.65527 8.86602 3.96839 9.11901C3.7278 9.181 3.47411 9.21534 3.21165 9.21534C3.0262 9.21534 2.84685 9.19775 2.67101 9.16424C3.03668 10.2574 4.097 11.0523 5.35327 11.0741C4.37082 11.8113 3.13205 12.2494 1.78656 12.2494C1.55473 12.2494 1.32639 12.236 1.10156 12.2117C2.37271 12.9933 3.8818 13.4489 5.50375 13.4489C10.7869 13.4489 13.6747 9.25891 13.6747 5.62511L13.6651 5.2691C14.2294 4.88374 14.7175 4.39958 15.1016 3.84839Z"/>

    <g id="Instagram">
        <path d="M14.7552 5.25329C14.7239 4.54484 14.6094 4.05778 14.4452 3.63574C14.2759 3.18776 14.0155 2.78668 13.6742 2.45326C13.3408 2.11465 12.9371 1.85154 12.4943 1.68488C12.0698 1.52077 11.5853 1.4062 10.8768 1.37497C10.1631 1.34109 9.93652 1.33325 8.12627 1.33325C6.31603 1.33325 6.08944 1.34109 5.37834 1.37232C4.66989 1.40356 4.18284 1.51822 3.7609 1.68224C3.31282 1.85154 2.91174 2.11201 2.57832 2.45326C2.23971 2.78668 1.9767 3.19041 1.80994 3.6332C1.64583 4.05778 1.53126 4.54219 1.50003 5.25064C1.46615 5.96438 1.45831 6.19097 1.45831 8.00122C1.45831 9.81147 1.46615 10.0381 1.49738 10.7492C1.52862 11.4576 1.64329 11.9447 1.8074 12.3667C1.9767 12.8147 2.23971 13.2158 2.57832 13.5492C2.91174 13.8878 3.31546 14.1509 3.75826 14.3176C4.18284 14.4817 4.66725 14.5962 5.3758 14.6275C6.08679 14.6588 6.31348 14.6665 8.12373 14.6665C9.93398 14.6665 10.1606 14.6588 10.8717 14.6275C11.5801 14.5962 12.0672 14.4817 12.4891 14.3176C13.3852 13.9711 14.0936 13.2627 14.4401 12.3667C14.6041 11.9421 14.7187 11.4576 14.75 10.7492C14.7812 10.0381 14.789 9.81147 14.789 8.00122C14.789 6.19097 14.7864 5.96438 14.7552 5.25329ZM13.5545 10.6971C13.5258 11.3482 13.4164 11.6999 13.3252 11.9343C13.1012 12.5151 12.6402 12.9761 12.0593 13.2002C11.8249 13.2914 11.4707 13.4007 10.8221 13.4293C10.1188 13.4607 9.90793 13.4684 8.12892 13.4684C6.34991 13.4684 6.13634 13.4607 5.43563 13.4293C4.78446 13.4007 4.43283 13.2914 4.19841 13.2002C3.90935 13.0934 3.64624 12.9241 3.43267 12.7027C3.21128 12.4865 3.04197 12.226 2.93514 11.9369C2.84398 11.7025 2.7346 11.3482 2.70601 10.6997C2.67467 9.99644 2.66694 9.78542 2.66694 8.00641C2.66694 6.2274 2.67467 6.01383 2.70601 5.31322C2.7346 4.66205 2.84398 4.31042 2.93514 4.076C3.04197 3.78684 3.21128 3.52382 3.43532 3.31016C3.65143 3.08876 3.91189 2.91946 4.20105 2.81273C4.43547 2.72156 4.78975 2.61219 5.43827 2.5835C6.14153 2.55226 6.35255 2.54443 8.13146 2.54443C9.91312 2.54443 10.124 2.55226 10.8248 2.5835C11.4759 2.61219 11.8276 2.72156 12.062 2.81273C12.351 2.91946 12.6141 3.08876 12.8277 3.31016C13.0491 3.52637 13.2184 3.78684 13.3252 4.076C13.4164 4.31042 13.5258 4.66459 13.5545 5.31322C13.5857 6.01648 13.5935 6.2274 13.5935 8.00641C13.5935 9.78542 13.5857 9.9938 13.5545 10.6971Z"/>
        <path d="M8.12627 4.57607C6.23534 4.57607 4.70112 6.11019 4.70112 8.00123C4.70112 9.89226 6.23534 11.4264 8.12627 11.4264C10.0173 11.4264 11.5514 9.89226 11.5514 8.00123C11.5514 6.11019 10.0173 4.57607 8.12627 4.57607ZM8.12627 10.223C6.89953 10.223 5.90446 9.22807 5.90446 8.00123C5.90446 6.77438 6.89953 5.77941 8.12627 5.77941C9.35311 5.77941 10.3481 6.77438 10.3481 8.00123C10.3481 9.22807 9.35311 10.223 8.12627 10.223Z"/>
        <path d="M12.4866 4.44065C12.4866 4.88223 12.1285 5.24027 11.6869 5.24027C11.2453 5.24027 10.8872 4.88223 10.8872 4.44065C10.8872 3.99898 11.2453 3.64103 11.6869 3.64103C12.1285 3.64103 12.4866 3.99898 12.4866 4.44065Z"/>
    </g>

    <path id="Facebook" d="M11.8102 0.6698L9.95866 0.666748C7.87856 0.666748 6.5343 2.08347 6.5343 4.27623V5.94045H4.67269C4.51183 5.94045 4.38156 6.07442 4.38156 6.23966V8.65092C4.38156 8.81617 4.51198 8.94998 4.67269 8.94998H6.5343V15.0344C6.5343 15.1996 6.66457 15.3334 6.82543 15.3334H9.2543C9.41517 15.3334 9.54544 15.1994 9.54544 15.0344V8.94998H11.7221C11.883 8.94998 12.0132 8.81617 12.0132 8.65092L12.0141 6.23966C12.0141 6.16032 11.9834 6.08433 11.9289 6.02818C11.8743 5.97203 11.8001 5.94045 11.7228 5.94045H9.54544V4.52967C9.54544 3.8516 9.70274 3.50737 10.5626 3.50737L11.8099 3.50691C11.9706 3.50691 12.1009 3.37295 12.1009 3.20785V0.968861C12.1009 0.80392 11.9707 0.670105 11.8102 0.6698Z"/>

    <path id="Pinterest" d="M8.3025 0.666748C4.25367 0.667359 2.10156 3.24323 2.10156 6.05194C2.10156 7.35423 2.83452 8.9792 4.00812 9.49437C4.34291 9.6441 4.2986 9.46137 4.58661 8.36747C4.60938 8.27641 4.59769 8.19758 4.52384 8.11263C2.84622 6.18577 4.19644 2.22449 8.0631 2.22449C13.6591 2.22449 12.6135 9.9136 9.03669 9.9136C8.11479 9.9136 7.42799 9.19492 7.64523 8.30575C7.90863 7.24667 8.42435 6.10816 8.42435 5.34487C8.42435 3.42106 5.53805 3.70646 5.53805 6.25544C5.53805 7.04317 5.81868 7.57485 5.81868 7.57485C5.81868 7.57485 4.89001 11.3002 4.7177 11.9963C4.42599 13.1745 4.75708 15.0818 4.78601 15.2462C4.80385 15.3367 4.90601 15.3654 4.96325 15.2908C5.05494 15.1717 6.17746 13.5815 6.49194 12.432C6.60641 12.0134 7.07597 10.3145 7.07597 10.3145C7.38553 10.8694 8.27788 11.3338 9.2287 11.3338C12.0571 11.3338 14.1016 8.86492 14.1016 5.80138C14.0917 2.86433 11.5605 0.666748 8.3025 0.666748V0.666748Z"/>
    <!-- end social -->

    <g id="ruble-currency-sign">
        <g id="Group">
        <g id="Group_2">
        <path id="Vector" d="M0.954714 11.7725H3.18203V13.6819C3.18203 13.7748 3.21175 13.8508 3.27155 13.9103C3.33118 13.9701 3.40742 14 3.50029 14H5.16072C5.24689 14 5.32146 13.9701 5.38445 13.9103C5.44743 13.8508 5.47883 13.7747 5.47883 13.6819V11.7725H10.5001C10.5928 11.7725 10.6691 11.743 10.7288 11.6832C10.7887 11.6234 10.8184 11.5473 10.8184 11.4544V10.1816C10.8184 10.0893 10.7887 10.0127 10.7288 9.95322C10.6692 9.89339 10.5928 9.86348 10.5001 9.86348H5.47866V8.69013H8.85934C10.185 8.69013 11.267 8.28618 12.1058 7.47713C12.9442 6.66893 13.3637 5.62492 13.3637 4.34507C13.3637 3.06606 12.9442 2.02203 12.1058 1.213C11.2672 0.404774 10.185 0 8.85934 0H3.50013C3.40723 0 3.33116 0.0298867 3.27138 0.0893581C3.21175 0.149159 3.18186 0.225728 3.18186 0.318105V6.57252H0.954714C0.861843 6.57252 0.78574 6.60394 0.725967 6.6669C0.666358 6.72988 0.636444 6.80445 0.636444 6.89059V8.37197C0.636444 8.46487 0.666166 8.54097 0.725967 8.60075C0.785768 8.66058 0.861678 8.69011 0.954714 8.69011H3.18203V9.86345H0.954714C0.861843 9.86345 0.78574 9.89337 0.725967 9.9532C0.666358 10.0126 0.636444 10.0891 0.636444 10.1816V11.4544C0.636444 11.5473 0.666166 11.6234 0.725967 11.6831C0.78574 11.743 0.861815 11.7725 0.954714 11.7725ZM5.47866 2.11811H8.66048C9.36305 2.11811 9.92972 2.32353 10.3607 2.73451C10.7915 3.14551 11.007 3.68262 11.007 4.34523C11.007 5.00817 10.7915 5.54545 10.3607 5.95596C9.92972 6.36729 9.36302 6.57271 8.66048 6.57271H5.47866V2.11811Z" fill="#28553F"/>
        </g>
        </g>
        <defs>
        <clipPath id="clip0_511_1557">
        <rect width="14" height="14" fill="white"/>
        </clipPath>
        </defs>
    </g>
</svg>